<svg xmlns="http://www.w3.org/2000/svg" width="26" height="26" viewBox="0 0 26 26">
    <g fill="#001428" fill-rule="evenodd">
        <path d="M7.644 14.802c.778 0 1.495-.264 2.066-.707L4.97 9.355c-.442.57-.706 1.288-.706 2.066 0 1.867 1.513 3.38 3.38 3.38M21.737 11.42c0-.778-.264-1.494-.707-2.066l-4.74 4.741c.57.443 1.288.707 2.066.707 1.867 0 3.38-1.514 3.38-3.381"/>
        <path d="M24.12 6.265l-2.097 2.097c.693.83 1.11 1.896 1.11 3.059 0 2.635-2.142 4.778-4.777 4.778-1.163 0-2.23-.418-3.059-1.111L13 17.385l-2.298-2.297c-.829.693-1.895 1.11-3.058 1.11-2.635 0-4.778-2.142-4.778-4.777 0-1.163.418-2.23 1.11-3.059L2.9 7.284l-1.02-1.019C.688 8.23 0 10.535 0 13c0 7.18 5.82 13 13 13s13-5.82 13-13c0-2.466-.688-4.77-1.88-6.735"/>
        <path d="M22.405 4.028C20.038 1.547 16.7 0 13 0 9.3 0 5.962 1.547 3.594 4.028c-.322.338-.627.693-.912 1.064L13 15.409 23.317 5.092c-.285-.371-.59-.726-.912-1.064M13 1.7c3.04 0 5.867 1.173 7.992 3.31L13 13.003 5.008 5.011C7.133 2.874 9.959 1.701 13 1.701"/>
    </g>
</svg>

