<svg xmlns="http://www.w3.org/2000/svg" width="24" height="24" viewBox="0 0 24 24">
    <g fill="none" fill-rule="evenodd">
        <path d="M0 0H24V24H0z"/>
        <path fill="#B2B5B2" fill-rule="nonzero" d="M12 22c5.523 0 10-4.477 10-10S17.523 2 12 2 2 6.477 2 12s4.477 10 10 10zm0-2c-4.418 0-8-3.582-8-8s3.582-8 8-8 8 3.582 8 8-3.582 8-8 8z"/>
        <path fill="#B2B5B2" d="M13 11h3c.552 0 1 .448 1 1s-.448 1-1 1h-3v3c0 .552-.448 1-1 1s-1-.448-1-1v-3H8c-.552 0-1-.448-1-1s.448-1 1-1h3V8c0-.552.448-1 1-1s1 .448 1 1v3z"/>
    </g>
</svg>
