<svg xmlns="http://www.w3.org/2000/svg" width="24" height="24" viewBox="0 0 24 24">
    <g fill="none" fill-rule="evenodd">
        <path d="M0 0H24V24H0z"/>
        <path fill="#B2B5B2" d="M13.01 4c1.655 0 3 1.346 3 3s-1.345 3-3 3c-1.653 0-3-1.346-3-3s1.347-3 3-3m9.958 16.726c-1.131-3.876-3.007-8.232-7.486-9.406 1.503-.863 2.529-2.466 2.529-4.32 0-2.757-2.243-5-5-5s-5 2.243-5 5c0 1.859 1.032 3.466 2.542 4.327-.656.177-1.28.419-1.86.743-.482.27-.654.879-.383 1.361.268.48.879.655 1.36.383.973-.543 2.065-.808 3.338-.808 3.942 0 6.347 2.476 8.04 8.28.127.437.526.72.96.72.092 0 .187-.013.28-.04.53-.154.834-.71.68-1.24M6.999 17.003h2c.552 0 1 .448 1 1 0 .553-.448 1-1 1h-2v2c0 .552-.447 1-1 1-.552 0-1-.448-1-1v-2h-2c-.551 0-1-.447-1-1 0-.552.449-1 1-1h2v-1.999c0-.553.448-1 1-1 .553 0 1 .447 1 1v1.999z"/>
    </g>
</svg>
