<svg xmlns="http://www.w3.org/2000/svg" width="16" height="16" viewBox="0 0 16 16">
    <g fill="none" fill-rule="evenodd">
        <path d="M0 0H16V16H0z"/>
        <path fill="#B2B5B2" d="M8.998 3c.92 0 1.666.747 1.666 1.666 0 .919-.747 1.666-1.666 1.666-.918 0-1.665-.747-1.665-1.666C7.333 3.747 8.08 3 8.998 3m6.96 10.715c-.67-2.302-1.854-5.203-4.58-6.283.78-.673 1.286-1.657 1.286-2.766C12.664 2.645 11.02 1 8.998 1c-2.02 0-3.665 1.645-3.665 3.666 0 1.114.51 2.102 1.297 2.774-.128.052-.258.098-.382.159-.497.242-.703.84-.462 1.337.243.496.842.705 1.337.461.553-.269 1.167-.4 1.877-.4 2.453 0 3.96 1.578 5.038 5.278.127.437.526.72.96.72.092 0 .187-.013.28-.04.531-.154.834-.71.68-1.24M4.998 10.992h1c.552 0 1 .448 1 1 0 .553-.448 1-1 1h-1v1c0 .552-.447 1-1 1-.552 0-1-.448-1-1v-1H2c-.553 0-1-.447-1-1 0-.552.447-1 1-1h.998v-.998c0-.553.448-1 1-1 .553 0 1 .447 1 1v.998z"/>
    </g>
</svg>
