<svg xmlns="http://www.w3.org/2000/svg" width="24" height="25" viewBox="0 0 24 25">
    <g fill="none" fill-rule="evenodd">
        <path d="M0 0H24V24H0z"/>
        <path fill="#F02525" d="M11.999 8.002c.552 0 1 .447 1 1v4c0 .552-.448 1-1 1-.553 0-1-.448-1-1v-4c0-.553.447-1 1-1M11.999 15.752c.69 0 1.25.56 1.25 1.25s-.56 1.25-1.25 1.25-1.25-.56-1.25-1.25.56-1.25 1.25-1.25"/>
        <path fill="#F02525" d="M12 2c-.502 0-1.004.25-1.283.752L1.187 19.83C.644 20.804 1.352 22 2.47 22H21.53c1.119 0 1.826-1.196 1.283-2.17l-9.53-17.078C13.004 2.25 12.503 2 12 2m0 2.554l8.624 15.454H3.377L12 4.554"/>
    </g>
</svg>
