<svg xmlns="http://www.w3.org/2000/svg" width="24" height="24" viewBox="0 0 24 24">
    <g fill="none" fill-rule="evenodd">
        <path d="M0 0H24V24H0z"/>
        <path fill="#B2B5B2" d="M11 18.586V3c0-.552.448-1 1-1s1 .448 1 1v15.586l4.121-4.122c.39-.39 1.024-.39 1.415 0 .39.391.39 1.024 0 1.415l-5.657 5.657c-.03.029-.06.056-.091.08-.184.234-.468.384-.788.384s-.604-.15-.788-.384c-.031-.024-.062-.051-.09-.08l-5.658-5.657c-.39-.39-.39-1.024 0-1.415.391-.39 1.024-.39 1.415 0L11 18.586z"/>
    </g>
</svg>
