<svg xmlns="http://www.w3.org/2000/svg" width="24" height="24" viewBox="0 0 24 24">
    <g fill="none" fill-rule="evenodd">
        <path d="M0 0H24V24H0z"/>
        <path fill="#008C73" d="M14.998 5c-3.865 0-7 3.134-7 7s3.135 7 7 7c3.866 0 7-3.134 7-7s-3.134-7-7-7m0 2c2.758 0 5 2.242 5 5s-2.242 5-5 5c-2.757 0-5-2.242-5-5s2.243-5 5-5"/>
        <path fill="#008C73" fill-rule="nonzero" d="M6.804 5.358C3.96 6.295 2 8.955 2 11.996c0 3.04 1.96 5.701 4.804 6.638.525.173 1.09-.113 1.263-.637.173-.525-.113-1.09-.637-1.263C5.399 16.066 4 14.166 4 11.996c0-2.17 1.399-4.07 3.43-4.738.524-.173.81-.738.637-1.263-.173-.524-.738-.81-1.263-.637z"/>
    </g>
</svg>
