<svg xmlns="http://www.w3.org/2000/svg" width="16" height="16" viewBox="0 0 16 16">
    <g fill="none" fill-rule="evenodd">
        <path d="M0 0H16V16H0z"/>
        <path fill="#B2B5B2" d="M6.013 10.006c-.367 0-.72-.202-.896-.553-.247-.493-.046-1.093.448-1.342l1.442-.721V5.015c0-.553.447-1 1-1 .553 0 1 .447 1 1v2.992c0 .379-.214.725-.553.895L6.459 9.9c-.143.07-.296.105-.446.105"/>
        <path fill="#B2B5B2" d="M8.004 3C5.244 3 3 5.245 3 8.005c0 2.759 2.245 5.004 5.004 5.004 2.76 0 5.005-2.245 5.005-5.004C13.009 5.245 10.764 3 8.004 3m0 12.009C4.142 15.009 1 11.867 1 8.005 1 4.143 4.142 1 8.004 1c3.862 0 7.005 3.143 7.005 7.005s-3.143 7.004-7.005 7.004"/>
    </g>
</svg>
