<svg xmlns="http://www.w3.org/2000/svg" width="24" height="24" viewBox="0 0 24 24">
    <g fill="none" fill-rule="evenodd">
        <path d="M0 0H24V24H0z"/>
        <path fill="#B2B5B2" d="M8.997 15.004c-.323 0-.64-.156-.833-.445-.307-.46-.183-1.08.277-1.387l2.56-1.707V7.014c0-.553.446-1 1-1 .552 0 1 .447 1 1V12c0 .334-.168.647-.446.832l-3.004 2.004c-.17.113-.364.168-.554.168"/>
        <path fill="#B2B5B2" d="M12 4c-4.411 0-8 3.589-8 8s3.589 8 8 8 8-3.589 8-8-3.589-8-8-8m0 18C6.486 22 2 17.514 2 12S6.486 2 12 2s10 4.486 10 10-4.486 10-10 10"/>
    </g>
</svg>
