<svg xmlns="http://www.w3.org/2000/svg" width="24" height="24" viewBox="0 0 24 24">
    <g fill="none" fill-rule="evenodd">
        <path d="M0 0H24V24H0z"/>
        <path fill="#B2B5B2" fill-rule="nonzero" d="M6 6.4L8.4 4h7.2L18 6.4h1.6c1.325 0 2.4 1.075 2.4 2.4v8.803c0 1.326-1.075 2.4-2.4 2.4H4.4c-1.325 0-2.4-1.074-2.4-2.4V8.8c0-1.325 1.075-2.4 2.4-2.4H6zM9.228 6l-2.4 2.4H4.4c-.22 0-.4.18-.4.4v8.803c0 .221.18.4.4.4h15.2c.22 0 .4-.179.4-.4V8.8c0-.22-.18-.4-.4-.4h-2.428l-2.4-2.4H9.228z"/>
        <path fill="#B2B5B2" fill-rule="nonzero" d="M7.5 12.5c0 2.485 2.015 4.5 4.5 4.5s4.5-2.015 4.5-4.5S14.485 8 12 8s-4.5 2.015-4.5 4.5zM12 10c1.38 0 2.5 1.12 2.5 2.5S13.38 15 12 15s-2.5-1.12-2.5-2.5S10.62 10 12 10z"/>
    </g>
</svg>
