<svg xmlns="http://www.w3.org/2000/svg" width="16" height="16" viewBox="0 0 16 16">
    <g fill="none" fill-rule="evenodd">
        <path d="M0 0H16V16H0z"/>
        <path fill="#B2B5B2" fill-rule="nonzero" d="M3.8 3.68L5.48 2h5.04l1.68 1.68h1.12c.928 0 1.68.752 1.68 1.68v6.162c0 .928-.752 1.68-1.68 1.68H2.68c-.928 0-1.68-.752-1.68-1.68V5.36c0-.928.752-1.68 1.68-1.68H3.8zm.828 2H3v5.522h10V5.68h-1.628L9.692 4H6.308l-1.68 1.68z"/>
        <path fill="#B2B5B2" d="M8 6c-1.105 0-2 .895-2 2s.895 2 2 2 2-.895 2-2-.895-2-2-2z"/>
    </g>
</svg>
