<svg xmlns="http://www.w3.org/2000/svg" width="24" height="24" viewBox="0 0 24 24">
    <g fill="none" fill-rule="evenodd">
        <path d="M0 0H24V24H0z"/>
        <path fill="#B2B5B2" fill-rule="nonzero" d="M12 22c5.523 0 10-4.477 10-10S17.523 2 12 2 2 6.477 2 12s4.477 10 10 10zm0-2c-4.418 0-8-3.582-8-8s3.582-8 8-8 8 3.582 8 8-3.582 8-8 8z"/>
        <path fill="#B2B5B2" d="M13.414 12l2.122 2.121c.39.39.39 1.024 0 1.415-.391.39-1.024.39-1.415 0L12 13.414l-2.121 2.122c-.39.39-1.024.39-1.415 0-.39-.391-.39-1.024 0-1.415L10.586 12 8.464 9.879c-.39-.39-.39-1.024 0-1.415.391-.39 1.024-.39 1.415 0L12 10.586l2.121-2.122c.39-.39 1.024-.39 1.415 0 .39.391.39 1.024 0 1.415L13.414 12z"/>
    </g>
</svg>
