<svg xmlns="http://www.w3.org/2000/svg" width="24" height="24" viewBox="0 0 24 24">
    <g fill="none" fill-rule="evenodd">
        <path d="M0 0H24V24H0z"/>
        <path fill="#B2B5B2" d="M13.413 11.998l8.291 8.291c.39.39.39 1.025 0 1.414-.39.39-1.025.39-1.415 0l-8.291-8.29-8.292 8.29c-.39.39-1.025.39-1.415 0-.389-.389-.389-1.024 0-1.414l8.292-8.291-8.292-8.292c-.389-.39-.389-1.025 0-1.415.39-.389 1.025-.389 1.415 0l8.292 8.292 8.291-8.292c.39-.389 1.025-.389 1.415 0 .39.39.39 1.025 0 1.415l-8.291 8.292z"/>
    </g>
</svg>
