<svg xmlns="http://www.w3.org/2000/svg" width="16" height="16" viewBox="0 0 16 16">
    <g fill="none" fill-rule="evenodd">
        <path d="M0 0H16V16H0z"/>
        <path fill="#B2B5B2" d="M9.413 8l5.293 5.292c.39.39.39 1.025 0 1.414-.39.39-1.025.39-1.414 0L8 9.413l-5.293 5.293c-.39.39-1.025.39-1.414 0-.39-.389-.39-1.025 0-1.414L6.585 8 1.292 2.706c-.39-.389-.39-1.025 0-1.414.39-.39 1.024-.39 1.414 0L8 6.585l5.293-5.293c.39-.39 1.024-.39 1.414 0 .39.39.39 1.025 0 1.414L9.413 8z"/>
    </g>
</svg>
