<svg xmlns="http://www.w3.org/2000/svg" width="16" height="16" viewBox="0 0 16 16">
    <g fill="none" fill-rule="evenodd">
        <path d="M0 0H16V16H0z"/>
        <path fill="#B2B5B2" fill-rule="nonzero" d="M3 3h10c1.105 0 2 .895 2 2v6c0 1.105-.895 2-2 2H3c-1.105 0-2-.895-2-2V5c0-1.105.895-2 2-2zm0 2v6h10V5H3z"/>
        <path fill="#B2B5B2" fill-rule="nonzero" d="M5 9.1c.608 0 1.1-.492 1.1-1.1 0-.608-.492-1.1-1.1-1.1-.608 0-1.1.492-1.1 1.1 0 .608.492 1.1 1.1 1.1zM8 9.1c.608 0 1.1-.492 1.1-1.1 0-.608-.492-1.1-1.1-1.1-.608 0-1.1.492-1.1 1.1 0 .608.492 1.1 1.1 1.1zM11 9.1c.608 0 1.1-.492 1.1-1.1 0-.608-.492-1.1-1.1-1.1-.608 0-1.1.492-1.1 1.1 0 .608.492 1.1 1.1 1.1z"/>
    </g>
</svg>
