<svg xmlns="http://www.w3.org/2000/svg" width="24" height="24" viewBox="0 0 24 24">
    <g fill="none" fill-rule="evenodd">
        <path d="M0 0H24V24H0z"/>
        <path fill="#B2B5B2" d="M17.593 9.042l-2.581-2.603 2.469-2.42 2.497 2.519c.006.006-.005.102.002.108l-2.387 2.396zM6.59 20H4v-2.621l9.585-9.538 2.595 2.617L6.59 20zM22 6.557c-.007-.556-.228-1.07-.602-1.427l-2.48-2.5c-.368-.394-.894-.623-1.444-.63h-.027c-.551 0-1.085.222-1.468.607L2.295 16.254c-.188.187-.295.443-.295.709V21c0 .553.447 1 1 1h4.003c.265 0 .518-.104.705-.291l13.69-13.652c.39-.394.61-.941.602-1.5z"/>
    </g>
</svg>
