<svg xmlns="http://www.w3.org/2000/svg" width="16" height="16" viewBox="0 0 16 16">
    <g fill="none" fill-rule="evenodd">
        <path d="M0 0H16V16H0z"/>
        <path fill="#B2B5B2" d="M11.729 5.554l-1.262-1.272 1.157-1.158 1.26 1.27-1.155 1.16zm-7.473 7.44H2.998v-1.273l6.057-6.022 1.26 1.269-6.06 6.027zm10.743-8.628c-.006-.461-.19-.888-.498-1.181l-1.644-1.658c-.308-.328-.746-.521-1.202-.527-.47.012-.916.179-1.239.503l-9.122 9.093c-.188.187-.294.442-.294.709v2.69c0 .553.448 1 1 1h2.668c.266 0 .518-.104.707-.291l9.127-9.1c.322-.324.503-.777.497-1.238z"/>
    </g>
</svg>
