<svg xmlns="http://www.w3.org/2000/svg" width="16" height="16" viewBox="0 0 16 16">
    <g fill="none" fill-rule="evenodd">
        <path d="M0 0H16V16H0z"/>
        <rect width="2" height="5" x="7" y="4" fill="#F02525" rx="1"/>
        <path fill="#F02525" fill-rule="nonzero" d="M8 9.9c.608 0 1.1.492 1.1 1.1 0 .608-.492 1.1-1.1 1.1-.608 0-1.1-.492-1.1-1.1 0-.608.492-1.1 1.1-1.1z"/>
        <path fill="#F02525" fill-rule="nonzero" d="M8 15c3.866 0 7-3.134 7-7s-3.134-7-7-7-7 3.134-7 7 3.134 7 7 7zm0-2c-2.761 0-5-2.239-5-5s2.239-5 5-5 5 2.239 5 5-2.239 5-5 5z"/>
    </g>
</svg>
