<svg xmlns="http://www.w3.org/2000/svg" width="16" height="16" viewBox="0 0 16 16">
    <g fill="none" fill-rule="evenodd">
        <path d="M0 0H16V16H0z"/>
        <path fill="#B2B5B2" d="M5.299 5.4c.387 0 .7-.313.7-.7 0-.387-.313-.7-.7-.7h-1.4c-.386 0-.7.313-.7.7 0 .006.003.01.003.015 0 .003-.004.005-.004.008v6.544c0 .004.005.006.005.01 0 .007-.004.013-.004.02 0 .387.314.701.7.701h1.4c.387 0 .7-.314.7-.7 0-.387-.313-.7-.7-.7h-.7V8.704h.7c.387 0 .7-.314.7-.7 0-.387-.313-.7-.7-.7h-.7V5.4h.7zM14.4 4c-.388 0-.7.313-.7.7v2.605h-1.4V4.7c0-.387-.315-.7-.702-.7-.386 0-.699.313-.699.7v6.592c0 .387.313.7.7.7.386 0 .7-.313.7-.7V8.705h1.4v2.587c0 .387.313.7.7.7.387 0 .7-.313.7-.7V4.7c0-.387-.313-.7-.7-.7M9.501 4H7.4c-.386 0-.7.313-.7.7 0 .387.314.7.7.7h.351v5.898c0 .387.313.7.699.7.387 0 .7-.313.7-.7V5.4h.351c.387 0 .699-.313.699-.7 0-.387-.312-.7-.699-.7M1.799 10.498c-.44 0-.8.358-.8.8 0 .44.36.8.8.8.44 0 .8-.36.8-.8 0-.442-.36-.8-.8-.8"/>
    </g>
</svg>
