<svg xmlns="http://www.w3.org/2000/svg" width="24" height="24" viewBox="0 0 24 24">
    <g fill="none" fill-rule="evenodd">
        <path d="M0 0H24V24H0z"/>
        <path fill="#B2B5B2" d="M8.1 9c.553 0 1-.448 1-1 0-.553-.447-1-1-1h-2c-.553 0-1 .447-1 1 0 .062.024.115.035.173-.014.057-.035.112-.035.174v7.472c0 .032.014.058.018.088-.003.03-.018.057-.018.088 0 .552.447 1 1 1h2c.553 0 1-.448 1-1 0-.553-.447-1-1-1h-1V13h1c.553 0 1-.447 1-1 0-.553-.447-1-1-1h-1V9h1zM21.1 7c-.553 0-1 .447-1 1v3h-2V8c0-.553-.447-1-1-1-.553 0-1 .447-1 1v8c0 .552.447 1 1 1 .553 0 1-.448 1-1v-3h2v3c0 .552.447 1 1 1 .553 0 1-.448 1-1V8c0-.553-.447-1-1-1M14.102 7h-3c-.553 0-1 .447-1 1 0 .552.447 1 1 1h.5v6.995c0 .552.447 1 1 1 .553 0 1-.448 1-1V9h.5c.553 0 1-.448 1-1 0-.553-.447-1-1-1M3.1 14.896c-.606 0-1.1.493-1.1 1.1 0 .606.494 1.099 1.1 1.099.606 0 1.1-.493 1.1-1.1 0-.606-.494-1.1-1.1-1.1"/>
    </g>
</svg>
