<svg xmlns="http://www.w3.org/2000/svg" width="16" height="16" viewBox="0 0 16 16">
    <g fill="none" fill-rule="evenodd">
        <path d="M0 0H16V16H0z"/>
        <path fill="#B2B5B2" d="M8 3C4.818 3 2.102 5.074 1 8c1.102 2.927 3.818 5 7 5s5.899-2.073 7-5c-1.101-2.926-3.818-5-7-5m0 2c2.022 0 3.842 1.155 4.812 3-.97 1.845-2.79 3-4.812 3-2.022 0-3.841-1.155-4.812-3C4.159 6.156 5.978 5 8 5"/>
        <path fill="#B2B5B2" d="M8.004 5.995c-1.104 0-2 .895-2 2 0 1.104.896 2 2 2s2-.896 2-2c0-1.105-.896-2-2-2"/>
    </g>
</svg>
