<svg xmlns="http://www.w3.org/2000/svg" width="16" height="16" viewBox="0 0 16 16">
    <g fill="none" fill-rule="evenodd">
        <path d="M0 0H16V16H0z"/>
        <path fill="#B2B5B2" d="M8.269 5.02c1.913.098 3.616 1.219 4.544 2.98-.18.34-.395.646-.626.937l1.41 1.41C14.186 9.66 14.672 8.874 15 8c-1.1-2.926-3.818-5-7-5-.538 0-1.054.08-1.56.192L8.27 5.018zM8 11c-2.022 0-3.842-1.155-4.812-3 .274-.521.625-.977 1.02-1.377l4.34 4.339C8.367 10.981 8.186 11 8 11m4.706 1.291l-.591-.591.004-.003-1.44-1.439-.005.002-4.806-4.805.005-.002-1.472-1.472-.005.003-.691-.691c-.391-.391-1.023-.391-1.414 0s-.391 1.023 0 1.414l.524.525C2.039 6.008 1.401 6.935 1 8c1.101 2.927 3.818 5 7 5 .776 0 1.522-.129 2.226-.36l1.066 1.065c.195.195.451.293.707.293.256 0 .512-.098.707-.293.391-.391.391-1.023 0-1.414"/>
    </g>
</svg>
