<svg xmlns="http://www.w3.org/2000/svg" width="24" height="24" viewBox="0 0 24 24">
    <g fill="none" fill-rule="evenodd">
        <path d="M0 0H24V24H0z"/>
        <path fill="#B2B5B2" d="M9.293 7.455C10.152 7.168 11.059 7 12 7c3.354 0 6.348 1.938 7.823 5-.643 1.334-1.587 2.436-2.71 3.277l1.43 1.43C20.073 15.494 21.28 13.874 22 12c-1.573-4.098-5.454-7-10-7-1.514 0-2.95.328-4.255.908l1.548 1.547z"/>
        <path fill="#B2B5B2" d="M11.837 10.001c.055-.004.107-.017.164-.017 1.103 0 2 .898 2 2 0 .057-.013.11-.018.163l1.594 1.594c.263-.532.424-1.123.424-1.757 0-2.209-1.79-4-4-4-.634 0-1.225.162-1.757.423l1.593 1.594zM12 17c-3.354 0-6.348-1.938-7.822-5 .426-.887.994-1.666 1.649-2.344l2.185 2.186c-.002.048-.01.094-.01.142 0 2.21 1.79 4 4 4 .048 0 .095-.008.143-.01l.946.945c-.36.048-.721.081-1.091.081m5.817 1.817L4.762 5.764c-.39-.39-1.023-.39-1.413 0-.392.39-.392 1.023 0 1.414l1.074 1.074C3.388 9.314 2.546 10.577 2 12c1.572 4.098 5.455 7 10 7 .964 0 1.895-.144 2.783-.389l1.62 1.62c.196.196.45.293.707.293.256 0 .512-.097.707-.293.39-.39.39-1.023 0-1.414"/>
    </g>
</svg>
