<svg xmlns="http://www.w3.org/2000/svg" width="16" height="16" viewBox="0 0 16 16">
    <g fill="none" fill-rule="evenodd">
        <path d="M0 0H16V16H0z"/>
        <path fill="#B2B5B2" d="M15 8c0 3.866-3.135 7-7 7-3.866 0-7-3.134-7-7s3.134-7 7-7c3.865 0 7 3.134 7 7zM9.414 8l1.938-1.938c.39-.39.39-1.025 0-1.414-.39-.39-1.025-.39-1.414 0L8 6.586 6.062 4.648c-.39-.39-1.025-.39-1.414 0-.39.389-.39 1.025 0 1.414L6.586 8 4.648 9.938c-.39.39-.39 1.025 0 1.414.389.39 1.025.39 1.414 0L8 9.414l1.938 1.938c.389.39 1.025.39 1.414 0 .39-.39.39-1.024 0-1.414L9.414 8z"/>
    </g>
</svg>
