<svg xmlns="http://www.w3.org/2000/svg" width="16" height="16" viewBox="0 0 16 16">
    <g fill="none" fill-rule="evenodd">
        <path d="M0 0H16V16H0z"/>
        <path fill="#B2B5B2" d="M4.854 4c-1.022 0-1.853.829-1.853 1.849v1.297c0 1.023.832 1.855 1.853 1.855h1.744c.328 0 .633.159.82.428l.117.169c.305.445 1.166 1.696 1.844 2.227l-.032-.176c-.136-.874-.13-1.253-.061-1.776.064-.499.489-.872.992-.872h.867c1.023 0 1.856-.826 1.856-1.841V5.849C13 4.829 12.168 4 11.146 4H4.854zm4.841 9.998c-.34 0-.69-.077-.992-.235H8.7c-.929-.485-1.839-1.637-2.627-2.762h-1.22C2.73 11.001 1 9.271 1 7.146V5.849C1 3.727 2.73 2 4.854 2h6.292C13.27 2 15 3.727 15 5.849V7.16c0 2.075-1.66 3.771-3.726 3.839.014.099.029.211.05.341l.028.159c.092.48.285 1.479-.479 2.114-.303.254-.734.385-1.178.385z"/>
    </g>
</svg>
