<svg xmlns="http://www.w3.org/2000/svg" width="24" height="24" viewBox="0 0 24 24">
    <g fill="none" fill-rule="evenodd">
        <path d="M0 0H24V24H0z"/>
        <path fill="#B2B5B2" d="M7.282 5C5.472 5 4 6.472 4 8.281v3.428c0 1.814 1.472 3.29 3.282 3.29h2.616c.313 0 .608.147.797.396 1.593 2.101 2.627 2.994 3.202 3.372-.332-1.118-.34-2.078-.304-2.817.026-.533.465-.951 1-.951h2.126c1.81 0 3.281-1.467 3.281-3.27V8.281C20 6.472 18.528 5 16.72 5H7.281zm7.098 16c-.325 0-.71-.077-1.145-.304-1.06-.554-2.349-1.797-3.829-3.697H7.282C4.37 16.999 2 14.626 2 11.709V8.281C2 5.369 4.37 3 7.282 3h9.437C19.631 3 22 5.369 22 8.281v3.448c0 2.906-2.369 5.27-5.28 5.27h-1.125c.04.501.142 1.058.381 1.668.303.77.071 1.606-.565 2.036-.139.093-.503.297-1.03.297z"/>
    </g>
</svg>
