<svg xmlns="http://www.w3.org/2000/svg" width="16" height="16" viewBox="0 0 16 16">
    <g fill="none" fill-rule="evenodd">
        <path d="M0 0H16V16H0z"/>
        <path fill="#B2B5B2" d="M7.27 8.688c-.24 0-.468-.097-.637-.266L5.17 6.958c-.35-.35-.35-.92.002-1.272.352-.351.92-.35 1.272.002l.825.825 2.29-2.29c.353-.35.923-.35 1.274 0 .351.353.351.923 0 1.274L7.906 8.425c-.17.168-.4.264-.638.264"/>
        <path fill="#B2B5B2" d="M4 3v9.131l3.446-2.299c.336-.225.774-.225 1.11 0L12 12.131V3H4zM3 15c-.162 0-.324-.039-.472-.118C2.203 14.708 2 14.369 2 14V2c0-.553.447-1 1-1h10c.553 0 1 .447 1 1v12c0 .369-.203.708-.528.882-.325.174-.72.154-1.027-.05l-4.444-2.966-4.446 2.966C3.388 14.943 3.194 15 3 15z"/>
    </g>
</svg>
