<svg xmlns="http://www.w3.org/2000/svg" width="24" height="24" viewBox="0 0 24 24">
    <g fill="none" fill-rule="evenodd">
        <path d="M0 0H24V24H0z"/>
        <path fill="#B2B5B2" d="M10.729 13.135c-.266 0-.52-.105-.707-.293l-2.543-2.545c-.39-.391-.39-1.024 0-1.414.391-.391 1.023-.391 1.414 0l1.835 1.837 4.38-4.38c.39-.39 1.023-.39 1.413 0 .392.392.392 1.024 0 1.415l-5.086 5.087c-.187.188-.44.293-.707.293"/>
        <path fill="#B2B5B2" d="M6 4v15.057l5.421-3.873c.348-.248.813-.248 1.163 0L18 19.056V4H6zm13 18c-.205 0-.408-.063-.582-.187l-6.416-4.586-6.421 4.586c-.305.218-.706.249-1.039.077C4.209 21.718 4 21.375 4 21V3c0-.553.447-1 1-1h14c.553 0 1 .447 1 1v18c0 .375-.209.718-.543.89-.144.074-.301.11-.457.11z"/>
    </g>
</svg>
