<svg xmlns="http://www.w3.org/2000/svg" width="24" height="24" viewBox="0 0 24 24">
    <g fill="none" fill-rule="evenodd">
        <path d="M0 0H24V24H0z"/>
        <path fill="#B2B5B2" d="M11 8.416V21c0 .553.447 1 1 1 .553 0 1-.447 1-1V8.416l4.122 4.121c.39.391 1.023.391 1.413 0 .392-.39.392-1.023 0-1.414L12.88 5.466c-.03-.029-.06-.056-.091-.08-.184-.235-.469-.384-.789-.384-.319 0-.604.15-.787.384-.03.024-.063.051-.09.08l-5.657 5.657c-.391.391-.391 1.023 0 1.414.39.391 1.022.391 1.413 0L11 8.417zM21 4H3c-.55 0-1-.45-1-1s.45-1 1-1h18c.55 0 1 .45 1 1s-.45 1-1 1"/>
    </g>
</svg>
