<svg xmlns="http://www.w3.org/2000/svg" width="16" height="16" viewBox="0 0 16 16">
    <g fill="none" fill-rule="evenodd">
        <path d="M0 0H16V16H0z"/>
        <path fill="#B2B5B2" d="M12 14v-1h.001L12 14zm-.001-1H4V8h8l-.001 5zM8.001 3c1.654 0 3 1.329 3 2.964V6h-6v-.036c0-1.635 1.346-2.964 3-2.964zm5 3.279v-.315c0-2.737-2.243-4.964-5-4.964s-5 2.227-5 4.964v.313C2.406 6.625 2 7.263 2 8v5c0 1.103.897 2 2 2h8c1.103 0 2-.897 2-2V8c0-.736-.404-1.374-.999-1.721z"/>
        <path fill="#B2B5B2" d="M9.002 9.81c0-.554-.449-1.002-1.002-1.002-.554 0-1.002.448-1.002 1.002 0 .295.132.554.335.736v.93c0 .372.3.672.67.672.37 0 .671-.3.671-.671v-.935c.198-.183.328-.44.328-.732"/>
    </g>
</svg>
