<svg xmlns="http://www.w3.org/2000/svg" width="24" height="24" viewBox="0 0 24 24">
    <g fill="none" fill-rule="evenodd">
        <path d="M0 0H24V24H0z"/>
        <path fill="#B2B5B2" d="M18 18.997c0 .552-.448 1-1 1H7c-.552 0-1-.448-1-1v-7c0-.552.448-1 1-1h10c.552 0 1 .448 1 1v7zM12.004 4c2.206 0 4 1.795 4 4v.997h-8V8c0-2.206 1.794-4.001 4-4.001zm6 5.183V8c0-3.31-2.692-6.001-6-6.001-3.309 0-6 2.692-6 6v1.18C4.84 9.593 4 10.693 4 11.997v7c0 1.654 1.346 3 3 3h10c1.654 0 3-1.346 3-3v-7c0-1.301-.837-2.4-1.996-2.814z"/>
        <path fill="#B2B5B2" d="M13.5 14.494c0-.83-.672-1.5-1.5-1.5s-1.5.67-1.5 1.5c0 .443.195.837.502 1.11v1.386c0 .554.449 1.003 1.003 1.003.555 0 1.004-.45 1.004-1.003v-1.392c.3-.275.491-.666.491-1.104"/>
    </g>
</svg>
