<svg xmlns="http://www.w3.org/2000/svg" width="16" height="16" viewBox="0 0 16 16">
    <g fill="none" fill-rule="evenodd">
        <path d="M0 0H16V16H0z"/>
        <path fill="#B2B5B2" d="M10.4 1H5.6C4.17 1 3 2.17 3 3.6v8.8C3 13.83 4.17 15 5.6 15h4.8c1.43 0 2.6-1.17 2.6-2.6V3.6C13 2.17 11.83 1 10.4 1m0 2c.325 0 .6.274.6.6v8.8c0 .326-.275.6-.6.6H5.6c-.325 0-.6-.274-.6-.6V3.6c0-.326.275-.6.6-.6h4.8"/>
        <path fill="#B2B5B2" d="M8.015 9.758c-.691 0-1.25.56-1.25 1.25s.559 1.25 1.25 1.25c.689 0 1.25-.56 1.25-1.25s-.561-1.25-1.25-1.25"/>
    </g>
</svg>
