<svg xmlns="http://www.w3.org/2000/svg" width="24" height="24" viewBox="0 0 24 24">
    <g fill="none" fill-rule="evenodd">
        <path d="M0 0H24V24H0z"/>
        <path fill="#B2B5B2" d="M16 2H8C6.35 2 5 3.35 5 5v14c0 1.65 1.35 3 3 3h8c1.65 0 3-1.35 3-3V5c0-1.65-1.35-3-3-3m0 2c.542 0 1 .458 1 1v14c0 .542-.458 1-1 1H8c-.542 0-1-.458-1-1V5c0-.542.458-1 1-1h8"/>
        <path fill="#B2B5B2" d="M12 16.757c-.69 0-1.25.56-1.25 1.25s.56 1.25 1.25 1.25 1.25-.56 1.25-1.25-.56-1.25-1.25-1.25"/>
    </g>
</svg>
