<svg xmlns="http://www.w3.org/2000/svg" width="16" height="16" viewBox="0 0 16 16">
    <g fill="none" fill-rule="evenodd">
        <path d="M0 0H16V16H0z"/>
        <path fill="#B2B5B2" d="M9.25 12.765c0 .69-.56 1.25-1.25 1.25s-1.25-.56-1.25-1.25.56-1.25 1.25-1.25 1.25.56 1.25 1.25"/>
        <path fill="#B2B5B2" d="M3.703 2.293c-.39-.391-1.023-.391-1.414 0-.39.39-.39 1.023 0 1.414l1.361 1.36c-.857.442-1.656 1-2.357 1.702-.39.39-.39 1.023 0 1.414.39.39 1.023.39 1.414 0 .71-.71 1.54-1.25 2.438-1.62L6.55 7.968c-.826.23-1.607.663-2.257 1.312-.39.39-.39 1.024 0 1.414.195.196.451.293.707.293.256 0 .512-.097.707-.293.725-.723 1.71-1.018 2.656-.913l2.93 2.93c.195.195.451.293.707.293.256 0 .512-.098.707-.293.391-.391.391-1.023 0-1.414L3.703 2.293zM14.707 6.769C12.974 5.035 10.686 4.064 8.246 4l2.52 2.52c.934.37 1.795.928 2.527 1.661.195.195.451.293.707.293.256 0 .512-.098.707-.293.391-.39.391-1.022 0-1.413"/>
    </g>
</svg>
