<svg xmlns="http://www.w3.org/2000/svg" width="24" height="24" viewBox="0 0 24 24">
    <g fill="none" fill-rule="evenodd">
        <path d="M0 0H24V24H0z"/>
        <path fill="#B2B5B2" d="M16 8.999c1.103 0 2 .897 2 2s-.897 2-2 2-2-.897-2-2 .897-2 2-2M7.998 4c1.103 0 2 .897 2 2s-.897 2-2 2c-1.102 0-2-.897-2-2s.898-2 2-2m14.96 16.719c-.689-2.362-1.914-5.356-4.792-6.366C19.267 13.64 20 12.406 20 10.999c0-2.206-1.794-4-4-4-2.023 0-3.683 1.515-3.946 3.467-.528-.458-1.158-.843-1.903-1.106 1.108-.712 1.847-1.948 1.847-3.36 0-2.206-1.794-4-4-4s-4 1.794-4 4c0 1.407.734 2.642 1.836 3.354-2.88 1.01-4.105 4.005-4.794 6.368-.154.53.15 1.086.68 1.24.093.027.187.04.28.04.434 0 .833-.283.96-.72 1.08-3.701 2.587-5.28 5.04-5.28 2.163 0 3.552 1.204 4.593 3.959-2.015 1.322-2.975 3.766-3.556 5.758-.154.53.151 1.086.68 1.24.094.027.188.04.28.04.434 0 .833-.283.96-.72 1.08-3.701 2.586-5.28 5.04-5.28 2.453 0 3.96 1.579 5.04 5.28.154.529.702.834 1.24.68.531-.154.834-.71.68-1.24"/>
    </g>
</svg>
