<svg xmlns="http://www.w3.org/2000/svg" width="16" height="16" viewBox="0 0 16 16">
    <g fill="none" fill-rule="evenodd">
        <path d="M0 0H16V16H0z"/>
        <path fill="#B2B5B2" d="M5 3c.552 0 1 .448 1 1s-.448 1-1 1-1-.448-1-1 .448-1 1-1m6.002 2.998c.552 0 1 .448 1 1s-.448 1-1 1-1-.448-1-1 .448-1 1-1m4.958 7.721c-.46-1.581-1.272-3.563-3.13-4.36.708-.549 1.172-1.398 1.172-2.361 0-1.654-1.346-3-3-3-1.649 0-2.99 1.338-2.998 2.985-.323-.262-.698-.489-1.129-.66C7.556 5.772 8 4.941 8 4c0-1.654-1.346-3-3-3S2 2.346 2 4c0 .971.471 1.827 1.188 2.376C1.328 7.185.51 9.145.042 10.71c-.158.529.143 1.086.672 1.244.096.028.191.042.286.042.431 0 .828-.28.958-.714.697-2.334 1.608-3.286 3.143-3.286 1.295 0 2.12.663 2.77 2.239-.975.965-1.495 2.331-1.83 3.484-.155.53.148 1.086.68 1.24.53.155 1.085-.149 1.24-.68.84-2.883 1.957-3.28 3.04-3.28 1.081 0 2.198.397 3.04 3.28.126.437.525.72.96.72.091 0 .186-.013.28-.04.53-.154.833-.71.68-1.24"/>
    </g>
</svg>
