<svg xmlns="http://www.w3.org/2000/svg" width="16" height="16" viewBox="0 0 16 16">
    <g fill="none" fill-rule="evenodd">
        <path d="M0 0H16V16H0z"/>
        <path fill="#B2B5B2" fill-rule="nonzero" d="M5.268 4H4v9h8V4h-1.268C10.387 4.598 9.74 5 9 5H7c-.74 0-1.387-.402-1.732-1zm5.464-2H12c1.105 0 2 .895 2 2v9c0 1.105-.895 2-2 2H4c-1.105 0-2-.895-2-2V4c0-1.105.895-2 2-2h1.268C5.613 1.402 6.26 1 7 1h2c.74 0 1.387.402 1.732 1zM7 2.6c-.22 0-.4.18-.4.4 0 .22.18.4.4.4h2c.22 0 .4-.18.4-.4 0-.22-.18-.4-.4-.4H7z"/>
    </g>
</svg>
