<svg xmlns="http://www.w3.org/2000/svg" width="16" height="16" viewBox="0 0 16 16">
    <g fill="none" fill-rule="evenodd">
        <path d="M0 0H16V16H0z"/>
        <path fill="#B2B5B2" fill-rule="nonzero" d="M6 5V3c0-1.105.895-2 2-2h5c1.105 0 2 .895 2 2v2c0 .364-.097.706-.268 1 .17.294.268.636.268 1v2c0 .364-.097.706-.268 1 .17.294.268.636.268 1v2c0 1.105-.895 2-2 2H8c-.272 0-.532-.054-.768-.153-.394.1-.807.153-1.232.153-2.761 0-5-2.239-5-5s2.239-5 5-5zm4 8h3v-2h-2.1c-.15.739-.463 1.419-.9 2zm.9-4H13V7h-3c.437.581.75 1.261.9 2zM8 5h5V3H8v2zm-2 8c1.657 0 3-1.343 3-3S7.657 7 6 7s-3 1.343-3 3 1.343 3 3 3z"/>
    </g>
</svg>
