<svg xmlns="http://www.w3.org/2000/svg" width="16" height="16" viewBox="0 0 16 16">
    <g fill="none" fill-rule="evenodd">
        <path d="M0 0H16V16H0z"/>
        <path fill="#B2B5B2" fill-rule="nonzero" d="M8.387 14.927c-.24.097-.507.097-.746.001-2.036-.815-3.566-1.917-4.529-3.278-.168-.228-.307-.447-.415-.657-.553-1.008-.752-2.46-.693-3.255V3.52c0-.58.491-1.038 1.07-.998.317.023.456.03.614.03 1.013 0 1.914-.263 2.746-.7.045-.023.09-.048.135-.074.214-.122.342-.208.595-.387l.104-.082.026-.022c.368-.361.95-.384 1.345-.053.87.732 2.14 1.318 3.665 1.318.159 0 .295-.007.614-.03.578-.04 1.07.418 1.07.998v4.286c.013.628-.039 1.323-.224 2.038-.094.359-.217.693-.376.997-.824 1.634-2.456 3.06-5.001 4.086zm3.218-4.992l.009-.016c.084-.16.156-.356.214-.578.13-.503.17-1.035.161-1.495l-.001-.076V4.546c-1.584-.062-2.933-.582-3.995-1.298-.141.095-.266.172-.43.266l-.196.108c-1.017.533-2.122.874-3.364.924l-.002 3.263c-.036.518.114 1.61.462 2.245.068.132.15.262.27.424.677.957 1.771 1.78 3.279 2.438 1.89-.828 3.033-1.867 3.593-2.981z"/>
    </g>
</svg>
