<svg xmlns="http://www.w3.org/2000/svg" width="24" height="24" viewBox="0 0 24 24">
    <g fill="none" fill-rule="evenodd">
        <path d="M0 0H24V24H0z"/>
        <path fill="#B2B5B2" fill-rule="nonzero" d="M12.38 21.935c-.227.086-.478.087-.705.001-3.157-1.185-5.515-2.776-6.99-4.733-.26-.33-.468-.635-.627-.93-.833-1.418-1.137-3.49-1.053-4.667V5.279c0-.58.49-1.037 1.069-.998.5.035.75.047 1.03.047 1.739 0 3.28-.423 4.702-1.12.081-.041.162-.083.242-.126.364-.195.606-.348 1.023-.626l.165-.12c.039-.03.065-.05.086-.07.36-.334.91-.356 1.296-.052 1.5 1.179 3.663 2.114 6.281 2.114.278 0 .53-.013 1.03-.047.577-.04 1.067.419 1.067.998v6.375l.002.063c.007.324 0 .687-.034 1.11-.05.625-.15 1.242-.312 1.83-.141.507-.326.977-.563 1.4-1.26 2.338-3.764 4.388-7.71 5.878zm5.951-6.832l.01-.016c.154-.276.282-.6.384-.966.125-.453.205-.946.245-1.453.028-.349.034-.647.029-.91l-.003-.104V6.328H18.9c-2.79 0-5.132-.882-6.899-2.09-.375.249-.636.408-1.006.606-.099.053-.199.105-.303.157-1.68.825-3.512 1.327-5.588 1.327h-.098l-.002 5.347c-.016.236.011.833.097 1.417.124.847.352 1.604.7 2.199.116.215.26.428.468.69 1.185 1.572 3.112 2.905 5.757 3.947 3.309-1.31 5.324-2.996 6.306-4.825z"/>
    </g>
</svg>
