<svg xmlns="http://www.w3.org/2000/svg" width="24" height="24" viewBox="0 0 24 24">
    <g fill="none" fill-rule="evenodd">
        <path d="M0 0H24V24H0z"/>
        <path fill="#B2B5B2" fill-rule="nonzero" d="M4 2h5c1.105 0 2 .895 2 2v5c0 1.105-.895 2-2 2H4c-1.105 0-2-.895-2-2V4c0-1.105.895-2 2-2zm0 2v5h5V4H4zM4 13h5c1.105 0 2 .895 2 2v5c0 1.105-.895 2-2 2H4c-1.105 0-2-.895-2-2v-5c0-1.105.895-2 2-2zm0 2v5h5v-5H4zM15 2h5c1.105 0 2 .895 2 2v5c0 1.105-.895 2-2 2h-5c-1.105 0-2-.895-2-2V4c0-1.105.895-2 2-2zm0 2v5h5V4h-5z"/>
        <rect width="3" height="3" x="13" y="13" fill="#B2B5B2" rx=".5" transform="matrix(-1 0 0 1 29 0)"/>
        <rect width="3" height="3" x="19" y="13" fill="#B2B5B2" rx=".5" transform="matrix(-1 0 0 1 41 0)"/>
        <rect width="3" height="3" x="16" y="16" fill="#B2B5B2" rx=".5" transform="matrix(-1 0 0 1 35 0)"/>
        <rect width="3" height="3" x="19" y="19" fill="#B2B5B2" rx=".5" transform="matrix(-1 0 0 1 41 0)"/>
        <rect width="3" height="3" x="13" y="19" fill="#B2B5B2" rx=".5" transform="matrix(-1 0 0 1 29 0)"/>
    </g>
</svg>
