<svg xmlns="http://www.w3.org/2000/svg" width="16" height="16" viewBox="0 0 16 16">
    <g fill="none" fill-rule="evenodd">
        <path d="M0 0H16V16H0z"/>
        <path fill="#B2B5B2" fill-rule="nonzero" d="M2 1h4c.552 0 1 .448 1 1v4c0 .552-.448 1-1 1H2c-.552 0-1-.448-1-1V2c0-.552.448-1 1-1zm1 2v2h2V3H3zM2 9h4c.552 0 1 .448 1 1v4c0 .552-.448 1-1 1H2c-.552 0-1-.448-1-1v-4c0-.552.448-1 1-1zm1 2v2h2v-2H3zM10 1h4c.552 0 1 .448 1 1v4c0 .552-.448 1-1 1h-4c-.552 0-1-.448-1-1V2c0-.552.448-1 1-1zm1 2v2h2V3h-2zM10.5 8.8h-1c-.387 0-.7.313-.7.7v1c0 .387.313.7.7.7h1c.387 0 .7-.313.7-.7v-1c0-.387-.313-.7-.7-.7zM14.5 8.8h-1c-.387 0-.7.313-.7.7v1c0 .387.313.7.7.7h1c.387 0 .7-.313.7-.7v-1c0-.387-.313-.7-.7-.7zM14.5 12.8h-1c-.387 0-.7.313-.7.7v1c0 .387.313.7.7.7h1c.387 0 .7-.313.7-.7v-1c0-.387-.313-.7-.7-.7zM10.5 12.8h-1c-.387 0-.7.313-.7.7v1c0 .387.313.7.7.7h1c.387 0 .7-.313.7-.7v-1c0-.387-.313-.7-.7-.7z"/>
        <path fill="#B2B5B2" fill-rule="nonzero" d="M12.5 10.8h-1c-.387 0-.7.313-.7.7v1c0 .387.313.7.7.7h1c.387 0 .7-.313.7-.7v-1c0-.387-.313-.7-.7-.7z"/>
    </g>
</svg>
