<svg xmlns="http://www.w3.org/2000/svg" width="16" height="16" viewBox="0 0 16 16">
    <g fill="none" fill-rule="evenodd">
        <path d="M0 0H16V16H0z"/>
        <path fill="#008C73" fill-rule="nonzero" d="M8 15c3.866 0 7-3.134 7-7s-3.134-7-7-7-7 3.134-7 7 3.134 7 7 7zm0-2c-2.761 0-5-2.239-5-5s2.239-5 5-5 5 2.239 5 5-2.239 5-5 5z"/>
        <rect width="2" height="2" x="7" y="10" fill="#008C73" rx="1"/>
        <path fill="#008C73" fill-rule="nonzero" d="M7.385 5.933c0-.3.259-.548.585-.548.325 0 .583.249.583.548.003.222-.026.266-.366.514l-.027.02c-.774.565-1.049 1.035-1.007 1.856v.098c-.001.453.365.819.817.819.451 0 .817-.366.817-.818v-.14c-.01-.228.005-.252.337-.495l.027-.02c.767-.56 1.05-1.03 1.037-1.847 0-1.196-.997-2.17-2.218-2.17-1.224 0-2.22.975-2.22 2.183 0 .451.366.817.818.817.451 0 .817-.366.817-.817z"/>
    </g>
</svg>
