<svg xmlns="http://www.w3.org/2000/svg" width="16" height="16" viewBox="0 0 16 16">
    <g fill="none" fill-rule="evenodd">
        <path d="M0 0H16V16H0z"/>
        <path fill="#008C73" d="M8 1c-.258 0-.517.137-.644.41L5.764 5.095c-.101.215-.302.365-.536.4l-3.624.558C1.033 6.14.8 6.835 1.2 7.249l2.672 2.469c.156.16.228.386.19.607l-.912 3.85c-.074.458.29.825.702.825.114 0 .232-.028.344-.091l3.458-1.76c.108-.06.226-.09.345-.09.119 0 .238.03.346.09l3.395 1.76c.113.063.23.09.345.09.41 0 .775-.366.7-.824l-.85-3.85c-.036-.221.035-.446.192-.607l2.67-2.47c.402-.413.17-1.107-.401-1.195l-3.625-.557c-.234-.036-.435-.186-.535-.401L8.644 1.41C8.517 1.137 8.259 1 8 1m0 3.96l.4.929.025.052c.384.822 1.148 1.395 2.044 1.533l.978.149-.676.626c-.027.023-.053.049-.078.074-.594.613-.868 1.48-.731 2.323l.02.11.247 1.117-.946-.49c-.393-.211-.836-.323-1.283-.323-.443 0-.883.11-1.274.318l-.973.495.258-1.086.027-.141c.137-.842-.137-1.71-.73-2.322-.026-.025-.051-.051-.08-.076l-.674-.625.977-.15c.897-.137 1.66-.71 2.044-1.532l.025-.052.4-.928"/>
    </g>
</svg>
