<svg xmlns="http://www.w3.org/2000/svg" width="16" height="16" viewBox="0 0 16 16">
    <g fill="none" fill-rule="evenodd">
        <path d="M0 0H16V16H0z"/>
        <path fill="#008C73" fill-rule="nonzero" d="M8 15c3.866 0 7-3.134 7-7s-3.134-7-7-7-7 3.134-7 7 3.134 7 7 7zm0-2c-2.761 0-5-2.239-5-5s2.239-5 5-5 5 2.239 5 5-2.239 5-5 5z"/>
        <path fill="#008C73" d="M8.984 8.608l1.302-1.322c.384-.384 1.024-.384 1.408 0 .384.384.384 1.024 0 1.408l-2.966 3.008c-.191.191-.448.298-.704.298-.256 0-.511-.107-.704-.298L4.29 8.694c-.426-.427-.383-1.152.13-1.515.404-.298.98-.213 1.322.15l1.13 1.108.129.022V4.982C7 4.427 7.447 4 7.98 4c.577 0 1.004.448 1.004.982v3.626z"/>
    </g>
</svg>
