<svg xmlns="http://www.w3.org/2000/svg" width="24" height="24" viewBox="0 0 24 24">
    <g fill="none" fill-rule="evenodd">
        <path d="M0 0H24V24H0z"/>
        <path fill="#008C73" fill-rule="nonzero" d="M12 22c5.523 0 10-4.477 10-10S17.523 2 12 2 2 6.477 2 12s4.477 10 10 10zm0-2c-4.418 0-8-3.582-8-8s3.582-8 8-8 8 3.582 8 8-3.582 8-8 8z"/>
        <path fill="#008C73" d="M15.287 12.297l-2.29 2.29V7c0-.55-.45-1-1-1-.551 0-1 .45-1 1v7.587l-2.291-2.29c-.39-.389-1.025-.389-1.414 0-.39.389-.39 1.025 0 1.414l3.998 3.997c.058.06.132.092.2.133.042.025.076.061.122.081.04.018.087.018.13.028.212.057.436.056.64-.028.044-.019.077-.054.118-.079.07-.041.143-.074.204-.135l3.997-3.997c.389-.389.389-1.025 0-1.414-.39-.39-1.025-.39-1.414 0z"/>
    </g>
</svg>
