<svg xmlns="http://www.w3.org/2000/svg" width="24" height="24" viewBox="0 0 24 24">
    <g fill="none" fill-rule="evenodd">
        <path d="M0 0H24V24H0z"/>
        <path fill="#B2B5B2" fill-rule="nonzero" d="M19.856 7.608c.311.559.565 1.154.754 1.78 1.444 4.755-1.242 9.78-5.997 11.222-4.756 1.443-9.78-1.243-11.223-5.997C1.947 9.857 4.632 4.832 9.388 3.389c.856-.259 1.735-.388 2.612-.388.553 0 1 .447 1 1 0 .552-.447 1-1 1-.681 0-1.365.1-2.032.302-3.698 1.122-5.787 5.03-4.664 8.73 1.122 3.697 5.03 5.785 8.728 4.664 3.698-1.122 5.787-5.03 4.664-8.73-.155-.51-.364-.996-.623-1.449l-.248 1.432c-.094.544-.612.91-1.156.815-.544-.094-.91-.612-.815-1.156l.616-3.557c.093-.538.6-.902 1.14-.818l3.54.551c.546.085.92.597.835 1.142-.085.546-.597.92-1.142.835l-.987-.154z"/>
        <path fill="#B2B5B2" fill-rule="nonzero" d="M8.582 12.927c-.47.29-.618.905-.328 1.376.29.47.905.617 1.375.327l2.892-1.779c.296-.182.476-.504.476-.851V8.015c0-.553-.447-1-1-1-.552 0-1 .447-1 1v3.426l-2.415 1.486z"/>
    </g>
</svg>
