<svg xmlns="http://www.w3.org/2000/svg" width="16" height="16" viewBox="0 0 16 16">
    <g fill="none" fill-rule="evenodd">
        <path d="M0 0H16V16H0z"/>
        <path fill="#B2B5B2" fill-rule="nonzero" d="M14.337 5.028c.141.302.262.616.36.94 1.123 3.698-.966 7.607-4.665 8.73-3.699 1.12-7.607-.968-8.728-4.666-1.123-3.699.965-7.607 4.665-8.73C6.634 1.103 7.318 1 8 1c.553 0 1 .448 1 1 0 .553-.447 1-1 1-.486 0-.975.072-1.451.217-2.642.8-4.134 3.592-3.332 6.235.802 2.64 3.593 4.132 6.234 3.331 2.642-.801 4.134-3.593 3.332-6.235-.035-.115-.074-.229-.117-.34l-.051.297c-.094.544-.612.91-1.156.815-.544-.094-.909-.612-.815-1.156l.462-2.668c.093-.537.6-.901 1.14-.817l2.655.413c.546.085.92.596.834 1.142-.084.546-.596.92-1.141.834l-.257-.04z"/>
        <path fill="#B2B5B2" fill-rule="nonzero" d="M5.305 8.482c-.47.29-.617.906-.328 1.376.29.47.906.617 1.376.328l2.17-1.334c.295-.182.475-.505.475-.852V5.01c0-.552-.448-1-1-1s-1 .448-1 1v2.43L5.305 8.482z"/>
    </g>
</svg>
