<svg xmlns="http://www.w3.org/2000/svg" width="24" height="24" viewBox="0 0 24 24">
    <g fill="none" fill-rule="evenodd">
        <path d="M0 0H24V24H0z"/>
        <path fill="#B2B5B2" d="M16.361 16.79l-3.285-1.298c-.513-.204-1.096.05-1.296.563-.204.513.049 1.094.562 1.296l1.165.461c-.675.235-1.386.37-2.11.37h-.014c-2.27-.005-4.39-1.228-5.537-3.19-.277-.477-.89-.639-1.367-.36-.478.278-.639.89-.36 1.367 1.503 2.573 4.284 4.176 7.26 4.183h.019c.956 0 1.896-.179 2.79-.493l-.36.961c-.194.517.068 1.093.586 1.287.114.043.232.064.35.064.405 0 .786-.247.937-.65l1.23-3.282c.191-.51-.062-1.08-.57-1.28M15.793 5.682c.68 0 1.23.552 1.23 1.23 0 .678-.55 1.23-1.23 1.23-.678 0-1.229-.552-1.229-1.23 0-.678.551-1.23 1.23-1.23M8.204 4c.678 0 1.23.552 1.23 1.23 0 .679-.552 1.23-1.23 1.23-.679 0-1.23-.551-1.23-1.23 0-.678.551-1.23 1.23-1.23m12.73 9.007c-.626-1.668-1.81-2.906-3.228-3.508.794-.588 1.316-1.525 1.316-2.587 0-1.781-1.449-3.23-3.23-3.23-1.78 0-3.229 1.449-3.229 3.23 0 1.062.522 1.999 1.316 2.587-.397.168-.778.374-1.13.639-.66-1.07-1.578-1.874-2.632-2.32.794-.59 1.317-1.526 1.317-2.588 0-1.78-1.45-3.23-3.23-3.23s-3.23 1.45-3.23 3.23c0 1.062.522 1.999 1.316 2.588-1.417.6-2.602 1.84-3.227 3.508-.194.517.068 1.093.584 1.288.517.19 1.094-.068 1.29-.585.595-1.591 1.878-2.62 3.267-2.62 1.288 0 2.48.892 3.121 2.29-.262.402-.495.834-.674 1.309-.193.517.07 1.093.586 1.287.116.043.234.064.351.064.404 0 .786-.247.936-.65.597-1.59 1.88-2.618 3.268-2.618 1.39 0 2.672 1.028 3.27 2.619.193.518.77.777 1.287.585.516-.194.778-.77.585-1.288"/>
    </g>
</svg>
