<svg xmlns="http://www.w3.org/2000/svg" width="16" height="16" viewBox="0 0 16 16">
    <g fill="none" fill-rule="evenodd">
        <path d="M0 0H16V16H0z"/>
        <path fill="#B2B5B2" d="M12.617 11.518l-2.557-1.01c-.51-.203-1.094.048-1.297.563-.203.513.05 1.094.563 1.297l.29.114c-.31.062-.627.104-.946.104h-.009c-1.688-.004-3.265-.913-4.117-2.373-.278-.476-.89-.637-1.367-.36-.478.279-.638.892-.36 1.368 1.208 2.07 3.446 3.36 5.84 3.365h.013c.611 0 1.218-.086 1.801-.246l-.116.31c-.193.517.07 1.094.585 1.288.116.043.235.063.352.063.404 0 .786-.247.936-.648l.958-2.554c.192-.51-.06-1.081-.569-1.281M11.452 3.001c.552 0 1 .448 1 1s-.448 1-1 1-1-.448-1-1 .448-1 1-1m-7.93-.005c0-.549.447-.996.995-.996.55 0 .996.447.996.996 0 .543-.439.984-.98.992l-.03-.003-.01.001c-.537-.014-.97-.45-.97-.99m12.41 5.427c-.43-1.148-1.17-2.058-2.073-2.651.367-.498.592-1.106.592-1.771 0-1.654-1.346-3-3-3s-3 1.346-3 3c0 .666.226 1.276.594 1.774-.228.151-.446.32-.65.511C8 5.659 7.501 5.142 6.93 4.756c.363-.495.584-1.101.584-1.76C7.513 1.344 6.17 0 4.517 0c-1.65 0-2.995 1.344-2.995 2.996 0 .653.217 1.254.574 1.747C1.212 5.331.487 6.228.063 7.355c-.193.518.07 1.094.585 1.289.116.043.235.063.352.063.404 0 .786-.247.936-.648.47-1.251 1.466-2.061 2.543-2.072.014 0 .026.004.038.004l.023-.002c1.071.019 2.061.825 2.528 2.07.01.026.032.044.044.069-.043.1-.096.192-.134.295-.193.517.07 1.094.585 1.288.517.189 1.093-.067 1.288-.585.48-1.278 1.502-2.104 2.605-2.104 1.102 0 2.124.826 2.603 2.104.152.401.533.648.937.648.117 0 .235-.02.352-.063.516-.194.778-.771.584-1.288"/>
    </g>
</svg>
