<svg xmlns="http://www.w3.org/2000/svg" width="16" height="16" viewBox="0 0 16 16">
    <g fill="none" fill-rule="evenodd">
        <path d="M0 0H16V16H0z"/>
        <path fill="#B2B5B2" d="M9.036 14.362l.008 1.342c0 .151.123.273.274.273h1.333c.073 0 .143-.029.195-.08l4.028-4.029c.158-.158.158-.415 0-.573l-1.182-1.182c-.144-.144-.378-.144-.522 0l-4.053 4.053c-.052.052-.08.123-.08.196"/>
        <path fill="#B2B5B2" d="M9.007 5.002V2.805l2.17 2.197h-2.17zm4.99.26c0-.162-.062-.317-.177-.43L9.226.182C9.11.065 8.952 0 8.788 0H3.5C2.672 0 2 .627 2 1.4v13.2c0 .773.672 1.4 1.5 1.4h3.492v-.003h.003c.552 0 1-.448 1-1s-.448-1-1-1c-.005 0-.01.003-.013.003H4V2h3.007v3.323c0 .926.754 1.68 1.68 1.68h3.31v.994c0 .552.448 1 1 1 .55 0 .998-.447.999-.998V5.261z"/>
    </g>
</svg>
