<svg xmlns="http://www.w3.org/2000/svg" width="24" height="24" viewBox="0 0 24 24">
    <g fill="none" fill-rule="evenodd">
        <path d="M0 0H24V24H0z"/>
        <path fill="#B2B5B2" d="M21.3 5.373c-.528-.17-1.089.117-1.26.642l-.397 1.22C18.03 4.638 15.178 3 12.003 3c-4.195 0-7.797 2.848-8.76 6.925-.127.537.206 1.076.745 1.203.077.017.154.026.23.026.453 0 .863-.309.973-.77C5.94 7.214 8.741 5 12.003 5c2.491 0 4.71 1.308 5.96 3.359l-1.55-.476c-.53-.164-1.089.136-1.25.662-.163.528.134 1.088.661 1.25l3.687 1.133c.098.03.197.044.294.044.422 0 .813-.269.951-.691l1.186-3.647c.17-.526-.118-1.09-.642-1.261M20.046 12.571c-.549-.107-1.069.247-1.175.788C18.23 16.63 15.341 19 12.003 19 9.52 19 7.3 17.693 6.05 15.646l1.53.471c.53.165 1.087-.135 1.25-.662.161-.529-.135-1.088-.663-1.25L4.48 13.071c-.523-.16-1.076.128-1.246.647l-1.185 3.65c-.17.523.117 1.088.643 1.26.102.032.206.047.308.047.422 0 .814-.268.951-.69l.402-1.237C5.965 19.354 8.827 21 12.003 21c4.29 0 8.004-3.05 8.831-7.254.107-.542-.247-1.069-.788-1.175"/>
    </g>
</svg>
