<svg xmlns="http://www.w3.org/2000/svg" width="16" height="16" viewBox="0 0 16 16">
    <g fill="none" fill-rule="evenodd">
        <path d="M0 0H16V16H0z"/>
        <path fill="#B2B5B2" d="M14.193 2.28c-.545-.116-1.07.243-1.178.783l-.257 1.287C11.65 2.9 9.921 2 8.005 2 5.71 2 3.586 3.336 2.591 5.403c-.239.498-.029 1.096.47 1.335.5.241 1.095.028 1.334-.469C5.058 4.89 6.475 4 8.005 4c1.31 0 2.493.626 3.228 1.637L9.73 5.445c-.55-.059-1.05.317-1.118.865-.07.548.316 1.05.864 1.12l3.665.468c.043.005.086.008.128.008.47 0 .885-.332.98-.804l.729-3.646c.108-.542-.244-1.069-.784-1.177M12.944 9.27c-.496-.239-1.095-.03-1.336.466C10.944 11.111 9.53 12 8.005 12c-1.343 0-2.55-.659-3.283-1.715l1.526.18c.55.07 1.046-.327 1.11-.876.066-.546-.327-1.045-.876-1.11l-3.635-.43c-.508-.06-.995.287-1.097.797l-.73 3.647c-.107.542.244 1.068.785 1.176.067.014.131.02.198.02.466 0 .884-.328.979-.804l.252-1.255C4.34 13.095 6.078 14 8.003 14c2.287 0 4.41-1.332 5.405-3.394.24-.497.032-1.095-.466-1.335"/>
    </g>
</svg>
