<svg xmlns="http://www.w3.org/2000/svg" width="24" height="24" viewBox="0 0 24 24">
    <g fill="none" fill-rule="evenodd">
        <path d="M0 0H24V24H0z"/>
        <path fill="#B2B5B2" fill-rule="nonzero" d="M22 4v4c0 .552-.448 1-1 1s-1-.448-1-1V4h-4c-.552 0-1-.448-1-1s.448-1 1-1h4c1.105 0 2 .895 2 2zM4 4v4c0 .552-.448 1-1 1s-1-.448-1-1V4c0-1.105.895-2 2-2h4c.552 0 1 .448 1 1s-.448 1-1 1H4zM20 20v-4c0-.552.448-1 1-1s1 .448 1 1v4c0 1.105-.895 2-2 2h-4c-.552 0-1-.448-1-1s.448-1 1-1h4zM4 20h4c.552 0 1 .448 1 1s-.448 1-1 1H4c-1.105 0-2-.895-2-2v-4c0-.552.448-1 1-1s1 .448 1 1v4z"/>
        <rect width="20" height="2" x="2" y="11" fill="#B2B5B2" rx="1"/>
    </g>
</svg>
