<svg xmlns="http://www.w3.org/2000/svg" width="16" height="16" viewBox="0 0 16 16">
    <g fill="none" fill-rule="evenodd">
        <path d="M0 0H16V16H0z"/>
        <path fill="#B2B5B2" fill-rule="nonzero" d="M11.429 7.422c2.167.853 3.576 2.978 4.543 6.293.154.53-.15 1.085-.68 1.24-.53.155-1.086-.15-1.24-.68-1.067-3.658-2.523-5.278-5.038-5.278-1.384 0-2.423.505-3.267 1.527-.352.426-.982.487-1.408.135-.426-.351-.486-.982-.135-1.408.683-.827 1.487-1.435 2.411-1.81-.777-.672-1.27-1.666-1.27-2.775C5.346 2.64 6.987 1 9.013 1c2.024 0 3.665 1.64 3.665 3.666 0 1.099-.483 2.084-1.248 2.756zm-2.417-1.09c.92 0 1.665-.745 1.665-1.666 0-.92-.745-1.666-1.665-1.666-.921 0-1.666.745-1.666 1.666 0 .92.745 1.666 1.666 1.666z"/>
        <path fill="#B2B5B2" fill-rule="nonzero" d="M7.602 13.663H1.75c-.414 0-.75-.336-.75-.75s.336-.75.75-.75h5.853l-.046-.046c-.293-.293-.292-.768 0-1.06.294-.294.769-.293 1.061 0l1.325 1.326c.293.292.293.767 0 1.06l-1.325 1.325c-.293.293-.768.293-1.06 0-.293-.293-.293-.768 0-1.06l.044-.045z"/>
    </g>
</svg>
