<svg xmlns="http://www.w3.org/2000/svg" width="24" height="24" viewBox="0 0 24 24">
    <g fill="none" fill-rule="evenodd">
        <path d="M0 0H24V24H0z"/>
        <path fill="#B2B5B2" fill-rule="nonzero" d="M15.529 11.316c3.613.955 5.885 4.118 7.43 9.41.154.53-.15 1.085-.68 1.24-.531.155-1.086-.15-1.24-.68-1.657-5.678-3.995-8.28-8.04-8.28-2.229 0-3.927.825-5.289 2.474-.352.426-.982.486-1.408.134-.426-.352-.486-.982-.134-1.408 1.19-1.442 2.628-2.411 4.328-2.878C9.005 10.463 8.002 8.848 8.002 7c0-2.761 2.238-5 5-5 2.761 0 5 2.239 5 5 0 1.84-.993 3.447-2.473 4.316zM13.002 10c1.657 0 3-1.343 3-3s-1.343-3-3-3-3 1.343-3 3 1.343 3 3 3z"/>
        <path fill="#B2B5B2" fill-rule="nonzero" d="M11.582 20.005H3c-.552 0-1-.448-1-1s.448-1 1-1h8.584l-.283-.283c-.39-.39-.39-1.024 0-1.414.39-.39 1.023-.39 1.414 0l1.989 1.989c.39.39.39 1.023 0 1.414l-1.989 1.99c-.39.39-1.023.39-1.414 0-.39-.39-.39-1.023 0-1.414l.281-.282z"/>
    </g>
</svg>
