<svg xmlns="http://www.w3.org/2000/svg" width="16" height="16" viewBox="0 0 16 16">
    <g fill="none" fill-rule="evenodd">
        <path d="M0 0H16V16H0z"/>
        <path fill="#008C73" fill-rule="nonzero" d="M8 16c4.418 0 8-3.582 8-8s-3.582-8-8-8-8 3.582-8 8 3.582 8 8 8zm0-2c-3.314 0-6-2.686-6-6s2.686-6 6-6 6 2.686 6 6-2.686 6-6 6z"/>
        <path fill="#008C73" d="M8 10.142c-1.182 0-2.144-.962-2.144-2.143 0-1.18.962-2.143 2.143-2.143 1.181 0 2.143.962 2.143 2.143 0 1.181-.962 2.143-2.143 2.143m4.333-3.006l-.214-.021c-.488-.049-.714-.312-.812-.479-.048-.182-.078-.529.226-.918l.142-.173c.386-.434.253-.688-.025-.966l-.23-.23c-.278-.277-.531-.41-.966-.025l-.168.137c-.382.314-.732.284-.917.235-.166-.097-.435-.322-.484-.815l-.021-.215C8.828 3.086 8.554 3 8.162 3h-.326c-.392 0-.665.086-.7.666l-.021.222c-.06.49-.327.714-.49.81-.187.048-.534.074-.912-.237l-.168-.137c-.434-.385-.688-.252-.966.026l-.23.23c-.278.277-.41.531-.025.965l.142.173c.304.389.275.736.226.918-.098.167-.324.43-.812.479l-.214.021c-.58.035-.666.308-.666.7v.326c0 .393.086.666.666.7l.221.021c.49.061.714.327.81.49.048.187.074.535-.236.913l-.137.168c-.385.434-.253.688.025.966l.23.229c.278.278.532.41.966.026l.173-.143c.385-.3.729-.274.912-.227.163.097.426.321.485.806l.021.222c.035.58.308.666.7.666h.326c.392 0 .666-.087.7-.666l.022-.215c.048-.488.312-.714.479-.812.182-.048.529-.078.917.226l.173.143c.435.385.688.252.966-.026l.23-.23c.278-.277.41-.531.026-.965l-.138-.168c-.31-.378-.284-.726-.235-.913.095-.163.32-.429.809-.49l.221-.02c.58-.035.666-.308.666-.701v-.325c0-.393-.086-.666-.666-.7"/>
    </g>
</svg>
