<svg xmlns="http://www.w3.org/2000/svg" width="24" height="24" viewBox="0 0 24 24">
    <g fill="none" fill-rule="evenodd">
        <path d="M0 0H24V24H0z"/>
        <path fill="#008C73" fill-rule="nonzero" d="M12 22c5.523 0 10-4.477 10-10S17.523 2 12 2 2 6.477 2 12s4.477 10 10 10zm0-2c-4.418 0-8-3.582-8-8s3.582-8 8-8 8 3.582 8 8-3.582 8-8 8z"/>
        <path fill="#008C73" d="M11.999 14.57c-1.418 0-2.571-1.153-2.571-2.571 0-1.417 1.153-2.571 2.571-2.571 1.418 0 2.571 1.154 2.571 2.571 0 1.418-1.153 2.571-2.571 2.571m5.2-3.606l-.257-.026c-.585-.058-.857-.375-.975-.574-.058-.219-.093-.636.271-1.103l.17-.207c.464-.52.304-.825-.03-1.159l-.275-.275c-.334-.333-.638-.493-1.159-.03l-.201.164c-.459.376-.879.34-1.102.28-.199-.115-.522-.386-.58-.977l-.026-.257c-.042-.696-.37-.8-.84-.8h-.391c-.471 0-.8.104-.84.8l-.026.265c-.072.588-.393.858-.588.972-.224.058-.64.09-1.095-.283l-.201-.165c-.521-.462-.825-.302-1.159.031l-.276.275c-.333.334-.493.639-.03 1.159l.17.207c.365.467.33.884.272 1.103-.118.2-.39.516-.975.574l-.257.026c-.695.042-.799.369-.799.84v.39c0 .472.104.8.799.841l.266.025c.588.073.857.393.97.588.059.225.09.641-.282 1.096l-.165.2c-.462.521-.302.826.031 1.16l.276.275c.334.334.638.493 1.159.03l.207-.17c.462-.362.875-.33 1.095-.272.196.115.51.384.582.966l.026.267c.04.695.369.799.84.799h.39c.471 0 .8-.104.841-.799l.026-.258c.057-.585.375-.857.574-.975.219-.057.635-.093 1.102.271l.207.172c.521.462.825.303 1.159-.031l.276-.275c.333-.334.493-.639.03-1.16l-.164-.2c-.373-.455-.341-.871-.283-1.096.114-.195.383-.515.971-.588l.266-.025c.695-.04.799-.37.799-.84v-.39c0-.472-.104-.8-.799-.841"/>
    </g>
</svg>
