<svg xmlns="http://www.w3.org/2000/svg" width="24" height="24" viewBox="0 0 24 24">
    <g fill="none" fill-rule="evenodd">
        <path d="M0 0H24V24H0z"/>
        <path fill="#B2B5B2" d="M21.7 13.297c-.388-.39-1.024-.39-1.413 0l-2.29 2.29V6c0-.55-.45-1-1-1-.551 0-1 .45-1 1v9.587l-2.291-2.29c-.39-.389-1.025-.389-1.414 0-.39.389-.39 1.025 0 1.414l3.998 3.997c.058.06.132.092.2.133.042.025.076.061.122.081.04.018.087.018.13.028.212.057.436.056.64-.028.044-.019.077-.054.118-.079.07-.041.143-.074.204-.135l3.997-3.997c.389-.389.389-1.025 0-1.414M11.7 10.692c-.388.39-1.024.39-1.413 0l-2.29-2.29v9.587c0 .55-.45 1-1 1-.551 0-1-.45-1-1V8.402l-2.291 2.29c-.39.39-1.025.39-1.414 0-.39-.389-.39-1.025 0-1.414L6.29 5.281c.058-.06.132-.092.2-.133.042-.025.076-.06.122-.08.04-.019.087-.019.13-.029.212-.057.436-.056.64.028.044.02.077.054.118.08.07.04.143.073.204.134L11.7 9.278c.389.39.389 1.025 0 1.414"/>
    </g>
</svg>
