<svg xmlns="http://www.w3.org/2000/svg" width="24" height="24" viewBox="0 0 24 24">
    <g fill="none" fill-rule="evenodd">
        <path d="M0 0H24V24H0z"/>
        <path fill="#008C73" d="M18 18.997c0 .552-.448 1-1 1H7c-.552 0-1-.448-1-1v-7c0-.552.448-1 1-1h10c.552 0 1 .448 1 1v7zm.004-9.814V8c0-3.31-2.692-6.001-6-6.001-2.417 0-4.586 1.439-5.527 3.665-.215.509.022 1.096.531 1.31.508.215 1.096-.023 1.31-.531C8.946 4.96 10.393 4 12.004 4c2.206 0 4 1.795 4 4v.997H7c-1.654 0-3 1.346-3 3v7c0 1.654 1.346 3 3 3h10c1.654 0 3-1.346 3-3v-7c0-1.301-.837-2.4-1.996-2.814z"/>
        <path fill="#008C73" d="M13.5 14.494c0-.83-.672-1.5-1.5-1.5s-1.5.67-1.5 1.5c0 .443.196.838.502 1.112v1.384c0 .554.449 1.003 1.004 1.003.554 0 1.003-.45 1.003-1.003v-1.392c.3-.275.491-.666.491-1.104"/>
    </g>
</svg>
