<svg xmlns="http://www.w3.org/2000/svg" width="16" height="16" viewBox="0 0 16 16">
    <g fill="none" fill-rule="evenodd">
        <path d="M0 0H16V16H0z"/>
        <path fill="#008C73" d="M12 14v-1h.001L12 14zm-.001-1H4V8h8l-.001 5zm1.002-6.721v-.315c0-2.737-2.243-4.964-5-4.964C6.412 1 4.954 1.724 4 2.985c-.333.442-.246 1.069.194 1.402.441.333 1.067.245 1.402-.195C6.168 3.435 7.045 3 8.001 3c1.654 0 3 1.329 3 2.964V6H4c-1.103 0-2 .897-2 2v5c0 1.103.897 2 2 2h8c1.103 0 2-.897 2-2V8c0-.736-.404-1.374-.999-1.721z"/>
        <path fill="#008C73" d="M9.002 9.81c0-.554-.449-1.002-1.002-1.002-.554 0-1.002.448-1.002 1.002 0 .295.133.554.335.736v.93c0 .372.3.672.671.672.369 0 .67-.3.67-.671v-.935c.199-.183.328-.44.328-.732"/>
    </g>
</svg>
