<svg xmlns="http://www.w3.org/2000/svg" width="16" height="16" viewBox="0 0 16 16">
    <g fill="none" fill-rule="evenodd">
        <path d="M0 0H16V16H0z"/>
        <path fill="#B2B5B2" d="M8 3c.92 0 1.666.747 1.666 1.666 0 .919-.747 1.666-1.666 1.666-.919 0-1.666-.747-1.666-1.666C6.334 3.747 7.081 3 8 3m2.75 4.599c-.123-.061-.254-.107-.382-.159.788-.672 1.298-1.66 1.298-2.774C11.666 2.645 10.021 1 8 1 5.98 1 4.334 2.645 4.334 4.666c0 1.109.506 2.093 1.287 2.766-2.726 1.08-3.91 3.981-4.58 6.283-.155.53.148 1.086.68 1.24.092.027.187.04.28.04.433 0 .832-.283.96-.72 1.078-3.7 2.585-5.278 5.037-5.278.71 0 1.324.131 1.877.4.497.242 1.094.035 1.337-.461.241-.497.035-1.095-.462-1.337M9.05 13.372l.008 1.341c0 .151.123.273.274.273h1.333c.073 0 .143-.029.195-.08l4.028-4.028c.158-.158.158-.415 0-.573l-1.182-1.182c-.144-.145-.378-.145-.522 0L9.13 13.176c-.052.051-.081.122-.08.196"/>
    </g>
</svg>
